The toys are mistakenly delivered to a day-care center instead of the attic right before Andy leaves for college, and it\'s up to Woody to convince the other toys that they weren\'t abandoned and to return home

Genre:Animation | Adventure | Comedy | Family | Fantasy
Language:English  http://www.imdb.com/title/tt0435761/
Source:720p.BluRay.X264-HUBRIS
Subtitles:Romana
 
http://www.starshare.ro/bitbucket/Toy.Story.3.2010.BRRip.720p.H264.Feel-Free.mp4_snapshot_00.09.48_%5B2010.10.14_14.18.47%5D.jpg
 
http://www.starshare.ro/bitbucket/Toy.Story.3.2010.BRRip.720p.H264.Feel-Free.mp4_snapshot_00.13.05_%5B2010.10.14_14.18.14%5D.jpg
 
http://www.starshare.ro/bitbucket/Toy.Story.3.2010.BRRip.720p.H264.Feel-Free.mp4_snapshot_00.31.59_%5B2010.10.14_14.18.11%5D.jpg
 
http://www.starshare.ro/bitbucket/Toy.Story.3.2010.BRRip.720p.H264.Feel-Free.mp4_snapshot_00.38.52_%5B2010.10.14_14.18.18%5D.jpg
 
http://www.starshare.ro/bitbucket/Toy.Story.3.2010.BRRip.720p.H264.Feel-Free.mp4_snapshot_00.47.40_%5B2010.10.14_14.18.21%5D.jpg
 
http://www.youtube.com/watch?v=v_FfHA5whXc&feature=player_embedded

General
Complete name :Toy.Story.3.2010.BRRip.720p.H264.Feel-Free
Format : MPEG-4
Format profile : Base Media
Codec ID : isom
File size : 1.85 GiB
Duration : 1h 42mn
Overall bit rate : 2 576 Kbps
Video #2
Codec ID : avc1
Codec ID/Info : Advanced Video Coding
Duration : 1h 42mn
Bit rate mode : Variable
Bit rate : 2 379 Kbps
Width : 1 280 pixels
Height : 720 pixels
Display aspect ratio : 16:9
Frame rate mode : Constant
Frame rate : 23.976 fps
Original frame rate : 23.000 fps
Resolution : 24 bits
Colorimetry : 4:2:0
Scan type : Progressive
Bits/(Pixel*Frame) : 0.108
Stream size : 1.70 GiB (92%)
Audio #1
ID : 1
Format : AAC
Format/Info : Advanced Audio Codec
Format version : Version 4
Format profile : LC
Format settings, SBR : No
Codec ID : 40
Duration : 1h 42mn
Bit rate mode : Constant
Bit rate : 192 Kbps
Channel(s) : 6 channels
Channel positions : Front: L C R, Rear: L R, LFE
Sampling rate : 48.0 KHz
Resolution : 16 bits
Stream size : 141 MiB (7%)
